{"glyphs":{"0":{"ha":697,"x_min":61,"x_max":636,"o":"m 459 288 q 427 210 459 241 q 349 177 394 177 q 271 210 302 177 q 238 288 238 241 l 238 686 q 271 764 238 731 q 349 796 302 796 q 427 764 394 796 q 459 686 459 731 l 459 288 m 349 972 q 145 888 230 972 q 61 686 61 804 l 61 288 q 145 84 61 169 q 349 0 230 0 q 551 84 467 0 q 636 288 636 169 l 636 686 q 551 888 636 804 q 349 972 467 972 z "},"1":{"ha":515,"x_min":61,"x_max":454,"o":"m 247 972 l 61 820 l 174 684 l 277 768 l 277 0 l 454 0 l 454 972 l 247 972 z "},"2":{"ha":741,"x_min":61,"x_max":680,"o":"m 606 833 q 382 972 533 966 q 371 972 377 972 q 168 888 252 972 q 83 686 83 804 l 260 686 q 293 764 260 731 q 371 796 326 796 l 376 795 q 450 749 426 793 q 449 654 476 701 l 61 0 l 614 0 l 614 177 l 372 177 l 601 564 q 606 833 680 697 z "},"3":{"ha":697,"x_min":61,"x_max":636,"o":"m 370 972 q 349 972 358 972 q 145 888 230 972 q 61 686 61 804 l 61 663 l 238 663 l 238 686 q 271 764 238 731 q 349 796 302 796 q 426 764 394 796 q 459 687 458 732 q 433 625 458 650 q 370 600 407 600 l 282 600 l 282 420 l 349 420 q 427 388 394 420 q 459 309 459 355 l 459 288 q 427 210 459 241 q 349 177 394 177 q 271 210 302 177 q 238 288 238 241 l 238 309 l 61 309 l 61 288 q 145 84 61 169 q 349 0 230 0 q 551 84 467 0 q 636 288 636 169 l 636 309 q 561 503 636 420 q 635 686 635 579 l 636 707 q 558 895 636 817 q 370 972 480 972 l 370 972 z "},"4":{"ha":692,"x_min":61,"x_max":631,"o":"m 326 972 l 61 265 l 454 265 l 454 0 l 631 0 l 631 575 l 454 575 l 454 442 l 316 442 l 515 972 l 326 972 z "},"5":{"ha":697,"x_min":61,"x_max":636,"o":"m 636 309 q 551 513 636 429 q 349 597 467 597 l 293 597 l 317 796 l 591 796 l 591 972 l 159 972 l 94 420 l 349 420 q 427 388 394 420 q 459 309 459 355 l 459 288 q 427 210 459 241 q 349 177 394 177 q 271 210 302 177 q 238 288 238 241 l 238 309 l 61 309 l 61 288 q 145 84 61 169 q 349 0 230 0 q 551 84 467 0 q 636 288 636 169 l 636 309 z "},"6":{"ha":697,"x_min":61,"x_max":636,"o":"m 349 398 q 427 366 394 398 q 459 288 459 333 q 427 210 459 241 q 349 177 394 177 q 271 210 302 177 q 238 288 238 241 q 271 366 238 333 q 349 398 302 398 m 349 972 q 153 896 235 972 q 62 707 71 819 l 61 707 l 61 288 q 145 84 61 169 q 349 0 230 0 q 551 84 467 0 q 636 288 636 169 q 551 490 636 406 q 349 575 467 575 q 238 553 291 575 l 238 686 q 271 764 238 731 q 349 796 302 796 q 427 764 394 796 q 459 686 459 731 l 459 663 l 636 663 l 636 686 q 551 888 636 804 q 349 972 467 972 z "},"7":{"ha":731,"x_min":61,"x_max":670,"o":"m 61 972 l 61 796 l 425 796 l 159 0 l 346 0 l 670 972 l 61 972 z "},"8":{"ha":697,"x_min":61,"x_max":636,"o":"m 349 177 q 271 210 302 177 q 238 288 238 241 q 271 366 238 333 q 349 398 302 398 q 427 366 394 398 q 459 288 459 333 q 427 210 459 241 q 349 177 394 177 m 349 796 q 427 764 394 796 q 459 686 459 731 q 427 607 459 640 q 349 575 394 575 q 271 607 302 575 q 238 686 238 640 q 271 764 238 731 q 349 796 302 796 m 349 972 q 145 888 230 972 q 61 686 61 804 l 61 663 l 62 663 q 141 486 70 561 q 62 309 70 412 l 61 309 l 61 288 q 145 84 61 169 q 349 0 230 0 q 551 84 467 0 q 636 288 636 169 l 636 309 l 635 309 q 555 486 627 412 q 635 663 627 561 l 636 663 l 636 686 q 551 888 636 804 q 349 972 467 972 z "},"9":{"ha":697,"x_min":61,"x_max":636,"o":"m 349 575 q 271 607 302 575 q 238 686 238 640 q 271 764 238 731 q 349 796 302 796 q 427 764 394 796 q 459 686 459 731 q 427 607 459 640 q 349 575 394 575 m 349 972 q 145 888 230 972 q 61 686 61 804 q 145 482 61 566 q 349 398 230 398 q 459 420 406 398 l 459 0 l 636 0 l 636 686 q 551 888 636 804 q 349 972 467 972 z "},"\u0000":{"ha":0,"x_min":0,"x_max":0,"o":""}," ":{"ha":345,"x_min":0,"x_max":0,"o":""},"!":{"ha":299,"x_min":61,"x_max":238,"o":"m 61 265 l 238 265 l 238 972 l 61 972 l 61 265 m 61 0 l 238 0 l 238 177 l 61 177 l 61 0 z "},"\"":{"ha":326,"x_min":61,"x_max":264,"o":"m 61 795 l 149 795 l 149 972 l 61 972 l 61 795 m 176 795 l 264 795 l 264 972 l 176 972 l 176 795 z "},"#":{"ha":962,"x_min":61,"x_max":901,"o":"m 652 972 l 579 707 l 479 707 l 551 972 l 368 972 l 295 707 l 99 707 l 99 530 l 247 530 l 222 442 l 61 442 l 61 265 l 174 265 l 102 0 l 285 0 l 357 265 l 458 265 l 385 0 l 569 0 l 642 265 l 863 265 l 863 442 l 690 442 l 714 530 l 901 530 l 901 707 l 762 707 l 836 972 l 652 972 m 430 530 l 531 530 l 507 442 l 406 442 l 430 530 z "},"$":{"ha":652,"x_min":61,"x_max":591,"o":"m 370 972 l 282 972 l 282 925 q 125 836 187 909 q 61 663 61 761 q 139 475 61 553 q 326 398 216 398 q 389 372 363 398 q 415 309 415 346 q 389 247 415 273 q 326 221 363 221 q 264 247 290 221 q 238 309 238 273 l 238 329 l 61 329 l 61 309 q 125 138 61 212 q 282 48 187 64 l 282 0 l 370 0 l 370 48 q 528 138 465 64 q 591 309 591 212 q 514 497 591 419 q 326 575 436 575 q 264 601 290 575 q 238 663 238 627 q 264 726 238 700 q 326 751 290 751 q 389 726 363 751 q 415 663 415 700 l 415 644 l 591 644 l 591 663 q 528 836 591 761 q 370 925 465 909 l 370 972 z "},"%":{"ha":785,"x_min":61,"x_max":724,"o":"m 61 486 l 238 486 l 238 663 l 61 663 l 61 486 m 547 309 l 724 309 l 724 486 l 547 486 l 547 309 m 437 972 l 171 0 l 355 0 l 621 972 l 437 972 z "},"&":{"ha":741,"x_min":61,"x_max":680,"o":"m 415 177 l 349 177 q 271 210 302 177 q 238 288 238 241 q 271 366 238 333 q 349 398 302 398 l 415 398 l 415 177 m 591 663 l 415 663 l 415 575 l 349 575 q 271 607 302 575 q 238 686 238 640 q 271 764 238 731 q 349 796 302 796 l 503 796 l 503 972 l 349 972 q 145 888 230 972 q 61 686 61 804 l 61 663 l 62 663 q 141 486 70 561 q 62 309 70 412 l 61 309 l 61 288 q 145 84 61 169 q 349 0 230 0 l 591 0 l 591 398 l 680 398 l 680 575 l 591 575 l 591 663 z "},"'":{"ha":210,"x_min":61,"x_max":149,"o":"m 61 795 l 149 795 l 149 972 l 61 972 l 61 795 z "},"(":{"ha":410,"x_min":61,"x_max":349,"o":"m 61 60 q 145 -144 61 -59 q 349 -228 230 -228 l 349 -51 q 271 -18 302 -51 q 238 60 238 14 l 238 900 q 271 978 238 945 q 349 1010 302 1010 l 349 1187 q 145 1103 230 1187 q 61 900 61 1019 l 61 60 z "},")":{"ha":410,"x_min":61,"x_max":349,"o":"m 61 1010 q 139 978 106 1010 q 172 900 172 945 l 172 60 q 139 -18 172 14 q 61 -51 106 -51 l 61 -228 q 264 -144 180 -228 q 349 60 349 -59 l 349 900 q 264 1103 349 1019 q 61 1187 180 1187 l 61 1010 z "},"*":{"ha":430,"x_min":61,"x_max":369,"o":"m 171 974 l 171 901 l 109 941 l 61 867 l 134 819 l 61 772 l 109 698 l 171 738 l 171 665 l 259 665 l 259 738 l 321 698 l 369 772 l 296 819 l 369 867 l 321 941 l 259 901 l 259 974 l 171 974 z "},"+":{"ha":652,"x_min":61,"x_max":591,"o":"m 238 750 l 238 574 l 61 574 l 61 397 l 238 397 l 238 220 l 415 220 l 415 397 l 591 397 l 591 574 l 415 574 l 415 750 l 238 750 z "},",":{"ha":345,"x_min":61,"x_max":284,"o":"m 105 176 l 61 -133 l 194 -133 l 282 176 l 105 176 m 107 178 l 63 -132 l 196 -132 l 284 178 l 107 178 z "},"-":{"ha":652,"x_min":61,"x_max":591,"o":"m 61 397 l 591 397 l 591 574 l 61 574 l 61 397 z "},".":{"ha":299,"x_min":61,"x_max":238,"o":"m 61 0 l 238 0 l 238 177 l 61 177 l 61 0 z "},"/":{"ha":572,"x_min":61,"x_max":511,"o":"m 328 972 l 61 0 l 244 0 l 511 972 l 328 972 z "},":":{"ha":299,"x_min":61,"x_max":238,"o":"m 61 0 l 238 0 l 238 177 l 61 177 l 61 0 m 61 265 l 238 265 l 238 442 l 61 442 l 61 265 z "},";":{"ha":345,"x_min":61,"x_max":284,"o":"m 105 265 l 282 265 l 282 442 l 105 442 l 105 265 m 105 176 l 61 -133 l 194 -133 l 282 176 l 105 176 m 107 178 l 63 -132 l 196 -132 l 284 178 l 107 178 z "},"<":{"ha":531,"x_min":61,"x_max":470,"o":"m 345 768 l 61 484 l 345 201 l 470 326 l 311 484 l 470 643 l 345 768 z "},"=":{"ha":652,"x_min":61,"x_max":591,"o":"m 61 531 l 591 531 l 591 708 l 61 708 l 61 531 m 61 266 l 591 266 l 591 443 l 61 443 l 61 266 z "},">":{"ha":531,"x_min":61,"x_max":470,"o":"m 186 769 l 61 644 l 220 486 l 61 327 l 186 202 l 470 486 l 186 769 z "},"?":{"ha":697,"x_min":61,"x_max":636,"o":"m 349 972 q 145 888 230 972 q 61 686 61 804 l 61 663 l 238 663 l 238 686 q 271 764 238 731 q 349 796 302 796 q 427 764 394 796 q 459 686 459 731 q 427 607 459 640 q 349 575 394 575 l 260 575 l 260 265 l 437 265 l 437 412 q 580 515 524 440 q 636 686 636 591 q 551 888 636 804 q 349 972 467 972 m 260 0 l 437 0 l 437 177 l 260 177 l 260 0 z "},"@":{"ha":1095,"x_min":61,"x_max":1034,"o":"m 616 395 q 538 362 584 362 q 460 395 492 362 q 427 473 427 427 q 460 551 427 518 q 538 583 492 583 q 616 551 584 583 q 648 473 648 518 q 616 395 648 427 m 1034 484 q 1034 488 1034 490 q 1034 492 1034 486 q 1033 500 1034 498 q 1033 503 1033 500 q 920 788 1024 664 q 865 844 895 819 q 858 850 862 846 q 857 851 857 851 q 573 962 733 954 l 572 962 q 562 962 568 962 q 559 962 558 962 q 547 962 553 962 q 535 962 541 962 l 534 962 q 534 962 534 962 q 522 962 528 962 l 522 962 q 235 849 360 954 q 179 793 205 823 q 174 787 178 792 q 172 785 171 783 q 61 476 61 650 q 174 163 61 298 q 288 64 223 105 l 336 139 q 266 195 298 163 q 240 222 252 208 q 239 224 239 225 q 230 235 236 229 q 222 246 226 241 q 221 248 221 248 q 150 482 148 353 q 150 486 150 482 q 151 500 150 494 q 151 510 151 505 q 152 520 151 515 q 153 528 153 524 q 158 559 155 544 q 159 560 158 559 q 160 568 159 564 q 161 570 160 568 q 163 577 161 574 q 163 581 163 578 q 165 586 164 584 q 167 591 165 588 q 168 595 168 594 q 170 602 169 598 q 171 604 170 603 q 174 612 172 608 q 174 612 174 612 q 174 612 174 612 q 349 821 224 748 q 349 821 349 821 q 355 824 351 822 q 360 827 359 826 q 361 827 360 827 q 361 827 361 827 q 553 873 451 875 q 559 873 555 873 q 572 873 566 873 q 583 872 578 873 q 591 871 587 871 q 602 870 596 871 q 612 869 607 869 q 612 868 612 869 q 631 865 622 867 l 631 865 q 640 863 635 864 q 641 863 640 863 q 642 863 642 863 q 648 861 646 861 q 652 860 649 861 q 658 858 655 859 q 663 857 659 858 q 667 855 667 855 q 673 853 669 854 q 675 852 675 853 q 684 850 680 851 l 684 850 q 684 850 683 850 q 684 850 683 850 q 684 850 684 849 q 684 850 686 849 l 684 850 q 684 850 684 850 l 684 849 q 892 674 820 800 q 892 673 892 674 q 893 673 892 673 q 895 669 894 672 q 899 663 898 664 q 945 470 947 572 q 945 464 945 468 q 945 451 945 456 q 944 440 944 445 q 943 431 943 436 q 941 421 942 427 q 940 412 941 416 q 940 410 941 413 q 937 393 939 401 q 937 392 937 393 q 935 384 936 388 q 934 382 935 384 q 932 374 933 378 q 931 371 932 373 q 930 366 930 368 q 928 361 929 364 q 927 357 928 358 q 925 350 926 354 q 924 347 924 348 q 922 340 923 344 q 921 338 921 338 q 918 330 920 334 q 825 191 886 251 l 825 476 q 741 676 824 593 q 538 760 657 760 q 335 676 419 760 q 251 473 251 592 q 335 269 251 353 q 538 185 419 185 q 648 208 595 185 l 648 0 q 891 132 789 30 l 891 132 q 1033 449 1023 263 q 1033 451 1033 452 q 1034 459 1034 453 q 1034 463 1034 465 q 1034 468 1034 462 l 1034 484 z "},"A":{"ha":769,"x_min":61,"x_max":708,"o":"m 293 972 l 61 0 l 243 0 l 275 133 l 495 133 l 526 0 l 708 0 l 477 972 l 293 972 m 385 595 l 452 309 l 317 309 l 385 595 z "},"B":{"ha":708,"x_min":61,"x_max":647,"o":"m 470 288 q 437 210 470 241 q 359 177 405 177 l 238 177 l 238 420 l 359 420 q 437 388 405 420 q 470 309 470 355 l 470 288 m 359 796 q 422 770 396 796 q 448 707 448 744 l 448 688 q 422 625 448 651 q 359 600 396 600 l 238 600 l 238 796 l 359 796 m 560 515 q 625 688 625 589 l 625 707 q 547 895 625 817 q 359 972 469 972 l 61 972 l 61 0 l 359 0 q 563 84 478 0 q 647 288 647 169 l 647 309 q 560 515 647 430 z "},"C":{"ha":697,"x_min":61,"x_max":636,"o":"m 349 972 q 145 888 230 972 q 61 686 61 804 l 61 288 q 145 84 61 169 q 349 0 230 0 q 551 84 467 0 q 636 288 636 169 l 636 309 l 459 309 l 459 288 q 427 210 459 241 q 349 177 394 177 q 271 210 302 177 q 238 288 238 241 l 238 686 q 271 764 238 731 q 349 796 302 796 q 427 764 394 796 q 459 686 459 731 l 459 663 l 636 663 l 636 686 q 551 888 636 804 q 349 972 467 972 z "},"D":{"ha":697,"x_min":61,"x_max":636,"o":"m 459 288 q 427 210 459 241 q 349 177 394 177 l 238 177 l 238 796 l 349 796 q 427 764 394 796 q 459 686 459 731 l 459 288 m 61 972 l 61 0 l 349 0 q 551 84 467 0 q 636 288 636 169 l 636 686 q 551 888 636 804 q 349 972 467 972 l 61 972 z "},"E":{"ha":697,"x_min":61,"x_max":636,"o":"m 61 972 l 61 0 l 636 0 l 636 177 l 238 177 l 238 398 l 547 398 l 547 575 l 238 575 l 238 796 l 636 796 l 636 972 l 61 972 z "},"F":{"ha":697,"x_min":61,"x_max":636,"o":"m 61 972 l 61 0 l 238 0 l 238 398 l 547 398 l 547 575 l 238 575 l 238 796 l 636 796 l 636 972 l 61 972 z "},"G":{"ha":697,"x_min":61,"x_max":636,"o":"m 349 972 q 145 888 230 972 q 61 686 61 804 l 61 288 q 145 84 61 169 q 349 0 230 0 l 636 0 l 636 575 l 370 575 l 370 398 l 459 398 l 459 177 l 349 177 q 271 210 302 177 q 238 288 238 241 l 238 686 q 271 764 238 731 q 349 796 302 796 q 427 764 394 796 q 459 686 459 731 l 459 663 l 636 663 l 636 686 q 551 888 636 804 q 349 972 467 972 z "},"H":{"ha":697,"x_min":61,"x_max":636,"o":"m 459 972 l 459 575 l 238 575 l 238 972 l 61 972 l 61 0 l 238 0 l 238 398 l 459 398 l 459 0 l 636 0 l 636 972 l 459 972 z "},"I":{"ha":299,"x_min":61,"x_max":238,"o":"m 61 0 l 238 0 l 238 972 l 61 972 l 61 0 z "},"J":{"ha":476,"x_min":61,"x_max":415,"o":"m 238 288 q 205 210 238 241 q 127 177 173 177 l 61 177 l 61 0 l 127 0 q 330 84 246 0 q 415 288 415 169 l 415 972 l 238 972 l 238 288 z "},"K":{"ha":745,"x_min":61,"x_max":684,"o":"m 473 972 l 238 609 l 238 972 l 61 972 l 61 0 l 238 0 l 238 283 l 298 377 l 475 0 l 671 0 l 412 552 l 684 972 l 473 972 z "},"L":{"ha":652,"x_min":61,"x_max":591,"o":"m 61 972 l 61 0 l 591 0 l 591 177 l 238 177 l 238 972 l 61 972 z "},"M":{"ha":918,"x_min":61,"x_max":857,"o":"m 669 972 l 459 551 l 248 972 l 61 972 l 61 0 l 238 0 l 238 598 l 459 156 l 680 598 l 680 0 l 857 0 l 857 972 l 669 972 z "},"N":{"ha":697,"x_min":61,"x_max":636,"o":"m 459 972 l 459 450 l 245 972 l 61 972 l 61 0 l 238 0 l 238 523 l 452 0 l 636 0 l 636 972 l 459 972 z "},"O":{"ha":697,"x_min":61,"x_max":636,"o":"m 459 288 q 427 210 459 241 q 349 177 394 177 q 271 210 302 177 q 238 288 238 241 l 238 686 q 271 764 238 731 q 349 796 302 796 q 427 764 394 796 q 459 686 459 731 l 459 288 m 349 972 q 145 888 230 972 q 61 686 61 804 l 61 288 q 145 84 61 169 q 349 0 230 0 q 551 84 467 0 q 636 288 636 169 l 636 686 q 551 888 636 804 q 349 972 467 972 z "},"P":{"ha":708,"x_min":61,"x_max":647,"o":"m 470 663 q 437 585 470 618 q 359 553 405 553 l 238 553 l 238 796 l 359 796 q 437 764 405 796 q 470 686 470 731 l 470 663 m 61 972 l 61 0 l 238 0 l 238 376 l 359 376 q 563 460 478 376 q 647 663 647 545 l 647 686 q 563 888 647 804 q 359 972 478 972 l 61 972 z "},"Q":{"ha":697,"x_min":61,"x_max":636,"o":"m 238 685 q 271 763 238 731 q 349 795 302 795 q 427 763 394 795 q 459 685 459 731 l 459 287 q 427 209 459 241 q 349 176 394 176 q 271 209 302 176 q 238 287 238 241 l 238 685 m 349 972 q 145 888 230 972 q 61 685 61 804 l 61 287 q 145 84 61 168 q 349 0 230 0 q 389 3 368 0 l 421 -77 l 585 -12 l 548 81 q 636 287 636 165 l 636 685 q 551 888 636 804 q 349 972 467 972 z "},"R":{"ha":749,"x_min":61,"x_max":688,"o":"m 238 553 l 238 796 l 359 796 q 437 764 405 796 q 470 686 470 731 l 470 663 q 437 585 470 618 q 359 553 405 553 l 238 553 m 688 0 l 494 410 q 605 513 564 447 q 647 663 647 583 l 647 686 q 563 888 647 804 q 359 972 478 972 l 61 972 l 61 0 l 238 0 l 238 376 l 315 376 l 492 0 l 688 0 z "},"S":{"ha":697,"x_min":61,"x_max":636,"o":"m 349 972 q 145 888 230 972 q 61 686 61 804 q 145 482 61 566 q 349 398 230 398 q 427 366 394 398 q 459 288 459 333 q 427 210 459 241 q 349 177 394 177 q 271 210 302 177 q 238 288 238 241 l 238 309 l 61 309 l 61 288 q 145 84 61 169 q 349 0 230 0 q 551 84 467 0 q 636 288 636 169 q 551 490 636 406 q 349 575 467 575 q 271 607 302 575 q 238 686 238 640 q 271 764 238 731 q 349 796 302 796 q 427 764 394 796 q 459 686 459 731 l 459 663 l 636 663 l 636 686 q 551 888 636 804 q 349 972 467 972 z "},"T":{"ha":697,"x_min":61,"x_max":636,"o":"m 61 972 l 61 796 l 260 796 l 260 0 l 437 0 l 437 796 l 636 796 l 636 972 l 61 972 z "},"U":{"ha":697,"x_min":61,"x_max":636,"o":"m 459 288 q 427 210 459 241 q 349 177 394 177 q 271 210 302 177 q 238 288 238 241 l 238 972 l 61 972 l 61 288 q 145 84 61 169 q 349 0 230 0 q 551 84 467 0 q 636 288 636 169 l 636 972 l 459 972 l 459 288 z "},"V":{"ha":769,"x_min":61,"x_max":708,"o":"m 526 972 l 385 377 l 243 972 l 61 972 l 293 0 l 477 0 l 708 972 l 526 972 z "},"W":{"ha":1255,"x_min":61,"x_max":1194,"o":"m 1013 972 l 871 377 l 729 972 l 526 972 l 385 377 l 243 972 l 61 972 l 293 0 l 477 0 l 628 635 l 779 0 l 963 0 l 1194 972 l 1013 972 z "},"X":{"ha":766,"x_min":61,"x_max":705,"o":"m 510 972 l 383 697 l 256 972 l 61 972 l 286 486 l 61 0 l 256 0 l 383 275 l 510 0 l 705 0 l 480 486 l 705 972 l 510 972 z "},"Y":{"ha":818,"x_min":61,"x_max":757,"o":"m 566 972 l 409 588 l 252 972 l 61 972 l 321 336 l 321 0 l 497 0 l 497 336 l 757 972 l 566 972 z "},"Z":{"ha":748,"x_min":61,"x_max":687,"o":"m 109 972 l 109 796 l 415 796 l 61 0 l 640 0 l 640 177 l 333 177 l 687 972 l 109 972 z "},"^":{"ha":471,"x_min":61,"x_max":410,"o":"m 235 1055 l 61 856 l 144 783 l 235 887 l 326 783 l 410 856 l 235 1055 z "},"_":{"ha":652,"x_min":61,"x_max":591,"o":"m 61 0 l 591 0 l 591 177 l 61 177 l 61 0 z "},"`":{"ha":307,"x_min":61,"x_max":245,"o":"m 61 1027 l 135 813 l 245 813 l 208 1027 l 61 1027 z "},"a":{"ha":769,"x_min":61,"x_max":708,"o":"m 293 972 l 61 0 l 243 0 l 275 133 l 495 133 l 526 0 l 708 0 l 477 972 l 293 972 m 385 595 l 452 309 l 317 309 l 385 595 z "},"b":{"ha":708,"x_min":61,"x_max":647,"o":"m 470 288 q 437 210 470 241 q 359 177 405 177 l 238 177 l 238 420 l 359 420 q 437 388 405 420 q 470 309 470 355 l 470 288 m 359 796 q 422 770 396 796 q 448 707 448 744 l 448 688 q 422 625 448 651 q 359 600 396 600 l 238 600 l 238 796 l 359 796 m 560 515 q 625 688 625 589 l 625 707 q 547 895 625 817 q 359 972 469 972 l 61 972 l 61 0 l 359 0 q 563 84 478 0 q 647 288 647 169 l 647 309 q 560 515 647 430 z "},"c":{"ha":697,"x_min":61,"x_max":636,"o":"m 349 972 q 145 888 230 972 q 61 686 61 804 l 61 288 q 145 84 61 169 q 349 0 230 0 q 551 84 467 0 q 636 288 636 169 l 636 309 l 459 309 l 459 288 q 427 210 459 241 q 349 177 394 177 q 271 210 302 177 q 238 288 238 241 l 238 686 q 271 764 238 731 q 349 796 302 796 q 427 764 394 796 q 459 686 459 731 l 459 663 l 636 663 l 636 686 q 551 888 636 804 q 349 972 467 972 z "},"d":{"ha":697,"x_min":61,"x_max":636,"o":"m 459 288 q 427 210 459 241 q 349 177 394 177 l 238 177 l 238 796 l 349 796 q 427 764 394 796 q 459 686 459 731 l 459 288 m 61 972 l 61 0 l 349 0 q 551 84 467 0 q 636 288 636 169 l 636 686 q 551 888 636 804 q 349 972 467 972 l 61 972 z "},"e":{"ha":697,"x_min":61,"x_max":636,"o":"m 61 972 l 61 0 l 636 0 l 636 177 l 238 177 l 238 398 l 547 398 l 547 575 l 238 575 l 238 796 l 636 796 l 636 972 l 61 972 z "},"f":{"ha":697,"x_min":61,"x_max":636,"o":"m 61 972 l 61 0 l 238 0 l 238 398 l 547 398 l 547 575 l 238 575 l 238 796 l 636 796 l 636 972 l 61 972 z "},"g":{"ha":697,"x_min":61,"x_max":636,"o":"m 349 972 q 145 888 230 972 q 61 686 61 804 l 61 288 q 145 84 61 169 q 349 0 230 0 l 636 0 l 636 575 l 370 575 l 370 398 l 459 398 l 459 177 l 349 177 q 271 210 302 177 q 238 288 238 241 l 238 686 q 271 764 238 731 q 349 796 302 796 q 427 764 394 796 q 459 686 459 731 l 459 663 l 636 663 l 636 686 q 551 888 636 804 q 349 972 467 972 z "},"h":{"ha":697,"x_min":61,"x_max":636,"o":"m 459 972 l 459 575 l 238 575 l 238 972 l 61 972 l 61 0 l 238 0 l 238 398 l 459 398 l 459 0 l 636 0 l 636 972 l 459 972 z "},"i":{"ha":299,"x_min":61,"x_max":238,"o":"m 61 0 l 238 0 l 238 972 l 61 972 l 61 0 z "},"j":{"ha":476,"x_min":61,"x_max":415,"o":"m 238 288 q 205 210 238 241 q 127 177 173 177 l 61 177 l 61 0 l 127 0 q 330 84 246 0 q 415 288 415 169 l 415 972 l 238 972 l 238 288 z "},"k":{"ha":745,"x_min":61,"x_max":684,"o":"m 473 972 l 238 609 l 238 972 l 61 972 l 61 0 l 238 0 l 238 283 l 298 377 l 475 0 l 671 0 l 412 552 l 684 972 l 473 972 z "},"l":{"ha":652,"x_min":61,"x_max":591,"o":"m 61 972 l 61 0 l 591 0 l 591 177 l 238 177 l 238 972 l 61 972 z "},"m":{"ha":918,"x_min":61,"x_max":857,"o":"m 669 972 l 459 551 l 248 972 l 61 972 l 61 0 l 238 0 l 238 598 l 459 156 l 680 598 l 680 0 l 857 0 l 857 972 l 669 972 z "},"n":{"ha":697,"x_min":61,"x_max":636,"o":"m 459 972 l 459 450 l 245 972 l 61 972 l 61 0 l 238 0 l 238 523 l 452 0 l 636 0 l 636 972 l 459 972 z "},"o":{"ha":697,"x_min":61,"x_max":636,"o":"m 459 288 q 427 210 459 241 q 349 177 394 177 q 271 210 302 177 q 238 288 238 241 l 238 686 q 271 764 238 731 q 349 796 302 796 q 427 764 394 796 q 459 686 459 731 l 459 288 m 349 972 q 145 888 230 972 q 61 686 61 804 l 61 288 q 145 84 61 169 q 349 0 230 0 q 551 84 467 0 q 636 288 636 169 l 636 686 q 551 888 636 804 q 349 972 467 972 z "},"p":{"ha":708,"x_min":61,"x_max":647,"o":"m 470 663 q 437 585 470 618 q 359 553 405 553 l 238 553 l 238 796 l 359 796 q 437 764 405 796 q 470 686 470 731 l 470 663 m 61 972 l 61 0 l 238 0 l 238 376 l 359 376 q 563 460 478 376 q 647 663 647 545 l 647 686 q 563 888 647 804 q 359 972 478 972 l 61 972 z "},"q":{"ha":697,"x_min":61,"x_max":636,"o":"m 238 685 q 271 763 238 731 q 349 795 302 795 q 427 763 394 795 q 459 685 459 731 l 459 287 q 427 209 459 241 q 349 176 394 176 q 271 209 302 176 q 238 287 238 241 l 238 685 m 349 972 q 145 888 230 972 q 61 685 61 804 l 61 287 q 145 84 61 168 q 349 0 230 0 q 389 3 368 0 l 421 -77 l 585 -12 l 548 81 q 636 287 636 165 l 636 685 q 551 888 636 804 q 349 972 467 972 z "},"r":{"ha":749,"x_min":61,"x_max":688,"o":"m 238 553 l 238 796 l 359 796 q 437 764 405 796 q 470 686 470 731 l 470 663 q 437 585 470 618 q 359 553 405 553 l 238 553 m 688 0 l 494 410 q 605 513 564 447 q 647 663 647 583 l 647 686 q 563 888 647 804 q 359 972 478 972 l 61 972 l 61 0 l 238 0 l 238 376 l 315 376 l 492 0 l 688 0 z "},"s":{"ha":697,"x_min":61,"x_max":636,"o":"m 349 972 q 145 888 230 972 q 61 686 61 804 q 145 482 61 566 q 349 398 230 398 q 427 366 394 398 q 459 288 459 333 q 427 210 459 241 q 349 177 394 177 q 271 210 302 177 q 238 288 238 241 l 238 309 l 61 309 l 61 288 q 145 84 61 169 q 349 0 230 0 q 551 84 467 0 q 636 288 636 169 q 551 490 636 406 q 349 575 467 575 q 271 607 302 575 q 238 686 238 640 q 271 764 238 731 q 349 796 302 796 q 427 764 394 796 q 459 686 459 731 l 459 663 l 636 663 l 636 686 q 551 888 636 804 q 349 972 467 972 z "},"t":{"ha":697,"x_min":61,"x_max":636,"o":"m 61 972 l 61 796 l 260 796 l 260 0 l 437 0 l 437 796 l 636 796 l 636 972 l 61 972 z "},"u":{"ha":697,"x_min":61,"x_max":636,"o":"m 459 288 q 427 210 459 241 q 349 177 394 177 q 271 210 302 177 q 238 288 238 241 l 238 972 l 61 972 l 61 288 q 145 84 61 169 q 349 0 230 0 q 551 84 467 0 q 636 288 636 169 l 636 972 l 459 972 l 459 288 z "},"v":{"ha":769,"x_min":61,"x_max":708,"o":"m 526 972 l 385 377 l 243 972 l 61 972 l 293 0 l 477 0 l 708 972 l 526 972 z "},"w":{"ha":1255,"x_min":61,"x_max":1194,"o":"m 1013 972 l 871 377 l 729 972 l 526 972 l 385 377 l 243 972 l 61 972 l 293 0 l 477 0 l 628 635 l 779 0 l 963 0 l 1194 972 l 1013 972 z "},"x":{"ha":766,"x_min":61,"x_max":705,"o":"m 510 972 l 383 697 l 256 972 l 61 972 l 286 486 l 61 0 l 256 0 l 383 275 l 510 0 l 705 0 l 480 486 l 705 972 l 510 972 z "},"y":{"ha":818,"x_min":61,"x_max":757,"o":"m 566 972 l 409 588 l 252 972 l 61 972 l 321 336 l 321 0 l 497 0 l 497 336 l 757 972 l 566 972 z "},"z":{"ha":748,"x_min":61,"x_max":687,"o":"m 109 972 l 109 796 l 415 796 l 61 0 l 640 0 l 640 177 l 333 177 l 687 972 l 109 972 z "},"¨":{"ha":476,"x_min":61,"x_max":415,"o":"m 282 848 l 415 848 l 415 980 l 282 980 l 282 848 m 61 848 l 194 848 l 194 980 l 61 980 l 61 848 z "},"°":{"ha":401,"x_min":61,"x_max":340,"o":"m 200 969 q 236 954 221 969 q 251 918 251 939 q 236 882 251 897 q 200 867 221 867 q 164 882 179 867 q 149 918 149 897 q 164 954 149 939 q 200 969 179 969 m 200 779 q 298 820 258 779 q 340 918 340 861 q 298 1017 340 976 q 200 1058 258 1058 q 102 1017 142 1058 q 61 918 61 976 q 102 820 61 861 q 200 779 142 779 z "},"´":{"ha":307,"x_min":61,"x_max":245,"o":"m 98 1025 l 61 811 l 172 811 l 245 1025 l 98 1025 z "},"À":{"ha":769,"x_min":61,"x_max":708,"o":"m 293 972 l 61 0 l 243 0 l 275 133 l 495 133 l 526 0 l 708 0 l 477 972 l 293 972 m 385 595 l 452 309 l 317 309 l 385 595 m 262 1305 l 336 1091 l 446 1091 l 409 1305 l 262 1305 z "},"Á":{"ha":769,"x_min":61,"x_max":708,"o":"m 293 972 l 61 0 l 243 0 l 275 133 l 495 133 l 526 0 l 708 0 l 477 972 l 293 972 m 385 595 l 452 309 l 317 309 l 385 595 m 360 1303 l 323 1089 l 434 1089 l 508 1303 l 360 1303 z "},"Â":{"ha":769,"x_min":61,"x_max":708,"o":"m 293 972 l 61 0 l 243 0 l 275 133 l 495 133 l 526 0 l 708 0 l 477 972 l 293 972 m 385 595 l 452 309 l 317 309 l 385 595 m 385 1333 l 210 1134 l 294 1061 l 385 1165 l 475 1061 l 559 1134 l 385 1333 z "},"Ã":{"ha":769,"x_min":61,"x_max":708,"o":"m 293 972 l 61 0 l 243 0 l 275 133 l 495 133 l 526 0 l 708 0 l 477 972 l 293 972 m 385 595 l 452 309 l 317 309 l 385 595 m 276 1142 q 304 1164 288 1156 q 353 1156 328 1175 q 448 1121 398 1121 q 470 1123 459 1121 q 580 1194 538 1134 l 489 1257 l 489 1257 q 452 1232 473 1235 q 420 1244 438 1230 q 284 1274 355 1292 q 189 1211 227 1259 l 277 1143 l 276 1142 z "},"Ä":{"ha":769,"x_min":61,"x_max":708,"o":"m 293 972 l 61 0 l 243 0 l 275 133 l 495 133 l 526 0 l 708 0 l 477 972 l 293 972 m 385 595 l 452 309 l 317 309 l 385 595 m 429 1126 l 562 1126 l 562 1258 l 429 1258 l 429 1126 m 208 1126 l 340 1126 l 340 1258 l 208 1258 l 208 1126 z "},"Å":{"ha":769,"x_min":61,"x_max":708,"o":"m 293 972 l 61 0 l 243 0 l 275 133 l 495 133 l 526 0 l 708 0 l 477 972 l 293 972 m 385 595 l 452 309 l 317 309 l 385 595 m 385 1247 q 420 1232 406 1247 q 435 1196 435 1217 q 420 1160 435 1175 q 385 1145 406 1145 q 349 1160 363 1145 q 334 1196 334 1175 q 349 1232 334 1217 q 385 1247 363 1247 m 385 1057 q 483 1098 442 1057 q 524 1196 524 1139 q 483 1295 524 1254 q 385 1336 442 1336 q 286 1295 327 1336 q 245 1196 245 1254 q 286 1098 245 1139 q 385 1057 327 1057 z "},"Æ":{"ha":1173,"x_min":61,"x_max":1112,"o":"m 385 972 l 61 0 l 248 0 l 292 133 l 511 133 l 530 0 l 1112 0 l 1112 177 l 714 177 l 714 398 l 1024 398 l 1024 575 l 714 575 l 714 796 l 1112 796 l 1112 972 l 385 972 m 446 594 l 486 309 l 351 309 l 446 594 z "},"Ç":{"ha":697,"x_min":61,"x_max":636,"o":"m 349 971 q 145 886 230 971 q 61 684 61 802 l 61 286 q 131 98 61 179 q 304 1 200 18 l 304 -90 l 393 -90 l 393 1 q 566 98 496 18 q 636 286 636 179 l 636 308 l 459 308 l 459 286 q 427 208 459 240 q 349 175 394 175 q 271 208 302 175 q 238 286 238 240 l 238 684 q 271 762 238 729 q 349 794 302 794 q 427 762 394 794 q 459 684 459 729 l 459 661 l 636 661 l 636 684 q 551 886 636 802 q 349 971 467 971 z "},"È":{"ha":697,"x_min":61,"x_max":636,"o":"m 61 972 l 61 0 l 636 0 l 636 177 l 238 177 l 238 398 l 547 398 l 547 575 l 238 575 l 238 796 l 636 796 l 636 972 l 61 972 m 226 1305 l 300 1091 l 410 1091 l 373 1305 l 226 1305 z "},"É":{"ha":697,"x_min":61,"x_max":636,"o":"m 61 972 l 61 0 l 636 0 l 636 177 l 238 177 l 238 398 l 547 398 l 547 575 l 238 575 l 238 796 l 636 796 l 636 972 l 61 972 m 323 1303 l 287 1089 l 397 1089 l 471 1303 l 323 1303 z "},"Ê":{"ha":697,"x_min":61,"x_max":636,"o":"m 61 972 l 61 0 l 636 0 l 636 177 l 238 177 l 238 398 l 547 398 l 547 575 l 238 575 l 238 796 l 636 796 l 636 972 l 61 972 m 349 1333 l 174 1134 l 258 1061 l 349 1165 l 439 1061 l 523 1134 l 349 1333 z "},"Ë":{"ha":697,"x_min":61,"x_max":636,"o":"m 61 972 l 61 0 l 636 0 l 636 177 l 238 177 l 238 398 l 547 398 l 547 575 l 238 575 l 238 796 l 636 796 l 636 972 l 61 972 m 393 1126 l 526 1126 l 526 1258 l 393 1258 l 393 1126 m 172 1126 l 304 1126 l 304 1258 l 172 1258 l 172 1126 z "},"Ì":{"ha":334,"x_min":61,"x_max":273,"o":"m 96 0 l 273 0 l 273 972 l 96 972 l 96 0 m 61 1305 l 135 1091 l 245 1091 l 208 1305 l 61 1305 z "},"Í":{"ha":334,"x_min":61,"x_max":273,"o":"m 61 0 l 238 0 l 238 972 l 61 972 l 61 0 m 125 1303 l 88 1089 l 199 1089 l 273 1303 l 125 1303 z "},"Î":{"ha":471,"x_min":61,"x_max":410,"o":"m 147 0 l 324 0 l 324 972 l 147 972 l 147 0 m 235 1333 l 61 1134 l 144 1061 l 235 1165 l 326 1061 l 410 1134 l 235 1333 z "},"Ï":{"ha":476,"x_min":61,"x_max":415,"o":"m 149 0 l 326 0 l 326 972 l 149 972 l 149 0 m 282 1126 l 415 1126 l 415 1258 l 282 1258 l 282 1126 m 61 1126 l 194 1126 l 194 1258 l 61 1258 l 61 1126 z "},"Ð":{"ha":745,"x_min":61,"x_max":684,"o":"m 508 288 q 475 210 508 241 q 397 177 443 177 l 287 177 l 287 398 l 428 398 l 428 575 l 287 575 l 287 796 l 397 796 q 475 764 443 796 q 508 686 508 731 l 508 288 m 110 972 l 110 575 l 61 575 l 61 398 l 110 398 l 110 0 l 397 0 q 600 84 516 0 q 684 288 684 169 l 684 686 q 600 888 684 804 q 397 972 516 972 l 110 972 z "},"Ñ":{"ha":697,"x_min":61,"x_max":636,"o":"m 459 972 l 459 450 l 245 972 l 61 972 l 61 0 l 238 0 l 238 523 l 452 0 l 636 0 l 636 972 l 459 972 m 240 1142 q 268 1164 252 1156 q 317 1156 292 1175 q 412 1121 362 1121 q 434 1123 423 1121 q 544 1194 502 1134 l 453 1257 l 453 1257 q 416 1232 437 1235 q 384 1244 402 1230 q 248 1274 319 1292 q 153 1211 191 1259 l 241 1143 l 240 1142 z "},"Ò":{"ha":697,"x_min":61,"x_max":636,"o":"m 459 288 q 427 210 459 241 q 349 177 394 177 q 271 210 302 177 q 238 288 238 241 l 238 686 q 271 764 238 731 q 349 796 302 796 q 427 764 394 796 q 459 686 459 731 l 459 288 m 349 972 q 145 888 230 972 q 61 686 61 804 l 61 288 q 145 84 61 169 q 349 0 230 0 q 551 84 467 0 q 636 288 636 169 l 636 686 q 551 888 636 804 q 349 972 467 972 m 226 1305 l 300 1091 l 410 1091 l 373 1305 l 226 1305 z "},"Ó":{"ha":697,"x_min":61,"x_max":636,"o":"m 459 288 q 427 210 459 241 q 349 177 394 177 q 271 210 302 177 q 238 288 238 241 l 238 686 q 271 764 238 731 q 349 796 302 796 q 427 764 394 796 q 459 686 459 731 l 459 288 m 349 972 q 145 888 230 972 q 61 686 61 804 l 61 288 q 145 84 61 169 q 349 0 230 0 q 551 84 467 0 q 636 288 636 169 l 636 686 q 551 888 636 804 q 349 972 467 972 m 323 1303 l 287 1089 l 397 1089 l 471 1303 l 323 1303 z "},"Ô":{"ha":697,"x_min":61,"x_max":636,"o":"m 459 288 q 427 210 459 241 q 349 177 394 177 q 271 210 302 177 q 238 288 238 241 l 238 686 q 271 764 238 731 q 349 796 302 796 q 427 764 394 796 q 459 686 459 731 l 459 288 m 349 972 q 145 888 230 972 q 61 686 61 804 l 61 288 q 145 84 61 169 q 349 0 230 0 q 551 84 467 0 q 636 288 636 169 l 636 686 q 551 888 636 804 q 349 972 467 972 m 349 1333 l 174 1134 l 258 1061 l 349 1165 l 439 1061 l 523 1134 l 349 1333 z "},"Õ":{"ha":697,"x_min":61,"x_max":636,"o":"m 459 288 q 427 210 459 241 q 349 177 394 177 q 271 210 302 177 q 238 288 238 241 l 238 686 q 271 764 238 731 q 349 796 302 796 q 427 764 394 796 q 459 686 459 731 l 459 288 m 349 972 q 145 888 230 972 q 61 686 61 804 l 61 288 q 145 84 61 169 q 349 0 230 0 q 551 84 467 0 q 636 288 636 169 l 636 686 q 551 888 636 804 q 349 972 467 972 m 240 1142 q 268 1164 252 1156 q 317 1156 292 1175 q 412 1121 362 1121 q 434 1123 423 1121 q 544 1194 502 1134 l 453 1257 l 453 1257 q 416 1232 437 1235 q 384 1244 402 1230 q 248 1274 319 1292 q 153 1211 191 1259 l 241 1143 l 240 1142 z "},"Ö":{"ha":697,"x_min":61,"x_max":636,"o":"m 459 288 q 427 210 459 241 q 349 177 394 177 q 271 210 302 177 q 238 288 238 241 l 238 686 q 271 764 238 731 q 349 796 302 796 q 427 764 394 796 q 459 686 459 731 l 459 288 m 349 972 q 145 888 230 972 q 61 686 61 804 l 61 288 q 145 84 61 169 q 349 0 230 0 q 551 84 467 0 q 636 288 636 169 l 636 686 q 551 888 636 804 q 349 972 467 972 m 393 1126 l 526 1126 l 526 1258 l 393 1258 l 393 1126 m 172 1126 l 304 1126 l 304 1258 l 172 1258 l 172 1126 z "},"×":{"ha":623,"x_min":61,"x_max":562,"o":"m 436 734 l 311 609 l 186 734 l 61 609 l 186 484 l 61 359 l 186 234 l 311 359 l 436 234 l 562 359 l 436 484 l 562 609 l 436 734 z "},"Ø":{"ha":697,"x_min":61,"x_max":636,"o":"m 459 288 q 427 210 459 241 q 349 177 394 177 q 267 212 300 177 l 459 616 l 459 288 m 238 686 q 271 764 238 731 q 349 796 302 796 q 429 760 397 796 l 238 356 l 238 686 m 628 972 l 530 972 l 507 925 q 349 972 435 972 q 145 888 230 972 q 61 686 61 804 l 61 288 q 122 111 61 189 l 69 0 l 167 0 l 190 48 q 349 0 262 0 q 551 84 467 0 q 636 288 636 169 l 636 686 q 575 862 636 784 l 628 972 z "},"Ù":{"ha":697,"x_min":61,"x_max":636,"o":"m 459 288 q 427 210 459 241 q 349 177 394 177 q 271 210 302 177 q 238 288 238 241 l 238 972 l 61 972 l 61 288 q 145 84 61 169 q 349 0 230 0 q 551 84 467 0 q 636 288 636 169 l 636 972 l 459 972 l 459 288 m 226 1305 l 300 1091 l 410 1091 l 373 1305 l 226 1305 z "},"Ú":{"ha":697,"x_min":61,"x_max":636,"o":"m 459 288 q 427 210 459 241 q 349 177 394 177 q 271 210 302 177 q 238 288 238 241 l 238 972 l 61 972 l 61 288 q 145 84 61 169 q 349 0 230 0 q 551 84 467 0 q 636 288 636 169 l 636 972 l 459 972 l 459 288 m 323 1303 l 287 1089 l 397 1089 l 471 1303 l 323 1303 z "},"Û":{"ha":697,"x_min":61,"x_max":636,"o":"m 459 288 q 427 210 459 241 q 349 177 394 177 q 271 210 302 177 q 238 288 238 241 l 238 972 l 61 972 l 61 288 q 145 84 61 169 q 349 0 230 0 q 551 84 467 0 q 636 288 636 169 l 636 972 l 459 972 l 459 288 m 349 1333 l 174 1134 l 258 1061 l 349 1165 l 439 1061 l 523 1134 l 349 1333 z "},"Ü":{"ha":697,"x_min":61,"x_max":636,"o":"m 459 288 q 427 210 459 241 q 349 177 394 177 q 271 210 302 177 q 238 288 238 241 l 238 972 l 61 972 l 61 288 q 145 84 61 169 q 349 0 230 0 q 551 84 467 0 q 636 288 636 169 l 636 972 l 459 972 l 459 288 m 393 1126 l 526 1126 l 526 1258 l 393 1258 l 393 1126 m 172 1126 l 304 1126 l 304 1258 l 172 1258 l 172 1126 z "},"Ý":{"ha":818,"x_min":61,"x_max":757,"o":"m 566 972 l 409 588 l 252 972 l 61 972 l 321 336 l 321 0 l 497 0 l 497 336 l 757 972 l 566 972 m 385 1303 l 348 1089 l 458 1089 l 532 1303 l 385 1303 z "},"Þ":{"ha":719,"x_min":61,"x_max":658,"o":"m 238 376 l 238 597 l 370 597 q 449 564 416 597 q 481 486 481 532 q 449 408 481 441 q 370 376 416 376 l 238 376 m 238 774 l 238 972 l 61 972 l 61 0 l 238 0 l 238 199 l 370 199 q 574 283 490 199 q 658 486 658 368 q 574 690 658 605 q 370 774 490 774 l 238 774 z "},"ß":{"ha":697,"x_min":61,"x_max":636,"o":"m 349 972 q 145 888 230 972 q 61 686 61 804 l 61 0 l 238 0 l 238 686 q 271 764 238 731 q 349 796 302 796 q 427 764 394 796 q 459 686 459 731 q 427 607 459 640 q 349 575 394 575 l 326 575 l 326 398 l 349 398 q 427 366 394 398 q 459 288 459 333 q 427 210 459 241 q 349 177 394 177 l 326 177 l 326 0 l 349 0 q 551 84 467 0 q 636 288 636 169 l 636 309 l 635 309 q 555 486 627 412 q 635 663 627 561 l 636 663 l 636 686 q 551 888 636 804 q 349 972 467 972 z "},"à":{"ha":769,"x_min":61,"x_max":708,"o":"m 293 972 l 61 0 l 243 0 l 275 133 l 495 133 l 526 0 l 708 0 l 477 972 l 293 972 m 385 595 l 452 309 l 317 309 l 385 595 m 262 1359 l 336 1145 l 446 1145 l 409 1359 l 262 1359 z "},"á":{"ha":769,"x_min":61,"x_max":708,"o":"m 293 972 l 61 0 l 243 0 l 275 133 l 495 133 l 526 0 l 708 0 l 477 972 l 293 972 m 385 595 l 452 309 l 317 309 l 385 595 m 360 1357 l 323 1143 l 434 1143 l 507 1357 l 360 1357 z "},"â":{"ha":769,"x_min":61,"x_max":708,"o":"m 293 972 l 61 0 l 243 0 l 275 133 l 495 133 l 526 0 l 708 0 l 477 972 l 293 972 m 385 595 l 452 309 l 317 309 l 385 595 m 385 1388 l 210 1188 l 294 1116 l 385 1219 l 475 1116 l 559 1188 l 385 1388 z "},"ã":{"ha":769,"x_min":61,"x_max":708,"o":"m 293 972 l 61 0 l 243 0 l 275 133 l 495 133 l 526 0 l 708 0 l 477 972 l 293 972 m 385 595 l 452 309 l 317 309 l 385 595 m 276 1196 q 304 1218 288 1211 q 353 1210 328 1229 q 448 1175 398 1175 q 470 1177 459 1175 q 580 1249 538 1188 l 489 1312 l 490 1312 q 452 1286 473 1289 q 420 1298 438 1284 q 284 1328 355 1346 q 189 1265 227 1313 l 277 1197 l 276 1196 z "},"ä":{"ha":769,"x_min":61,"x_max":708,"o":"m 293 972 l 61 0 l 243 0 l 275 133 l 495 133 l 526 0 l 708 0 l 477 972 l 293 972 m 385 595 l 452 309 l 317 309 l 385 595 m 429 1181 l 562 1181 l 562 1312 l 429 1312 l 429 1181 m 208 1181 l 340 1181 l 340 1312 l 208 1312 l 208 1181 z "},"å":{"ha":769,"x_min":61,"x_max":708,"o":"m 293 972 l 61 0 l 243 0 l 275 133 l 495 133 l 526 0 l 708 0 l 477 972 l 293 972 m 385 595 l 452 309 l 317 309 l 385 595 m 385 1301 q 420 1286 406 1301 q 435 1251 435 1272 q 420 1215 435 1230 q 385 1200 406 1200 q 349 1215 363 1200 q 334 1251 334 1230 q 349 1286 334 1272 q 385 1301 363 1301 m 385 1112 q 483 1152 442 1112 q 524 1251 524 1193 q 483 1349 524 1308 q 385 1390 442 1390 q 286 1349 327 1390 q 245 1251 245 1308 q 286 1152 245 1193 q 385 1112 327 1112 z "},"æ":{"ha":1173,"x_min":61,"x_max":1112,"o":"m 385 972 l 61 0 l 248 0 l 292 133 l 511 133 l 530 0 l 1112 0 l 1112 177 l 714 177 l 714 398 l 1024 398 l 1024 575 l 714 575 l 714 796 l 1112 796 l 1112 972 l 385 972 m 446 594 l 486 309 l 351 309 l 446 594 z "},"ç":{"ha":697,"x_min":61,"x_max":636,"o":"m 349 971 q 145 886 230 971 q 61 684 61 802 l 61 286 q 131 98 61 179 q 304 1 200 18 l 304 -90 l 393 -90 l 393 1 q 566 98 496 18 q 636 286 636 179 l 636 308 l 459 308 l 459 286 q 427 208 459 240 q 349 175 394 175 q 271 208 302 175 q 238 286 238 240 l 238 684 q 271 762 238 729 q 349 794 302 794 q 427 762 394 794 q 459 684 459 729 l 459 661 l 636 661 l 636 684 q 551 886 636 802 q 349 971 467 971 z "},"è":{"ha":697,"x_min":61,"x_max":636,"o":"m 61 972 l 61 0 l 636 0 l 636 177 l 238 177 l 238 398 l 547 398 l 547 575 l 238 575 l 238 796 l 636 796 l 636 972 l 61 972 m 226 1305 l 299 1091 l 410 1091 l 373 1305 l 226 1305 z "},"é":{"ha":697,"x_min":61,"x_max":636,"o":"m 61 972 l 61 0 l 636 0 l 636 177 l 238 177 l 238 398 l 547 398 l 547 575 l 238 575 l 238 796 l 636 796 l 636 972 l 61 972 m 324 1303 l 287 1089 l 397 1089 l 471 1303 l 324 1303 z "},"ê":{"ha":697,"x_min":61,"x_max":636,"o":"m 61 972 l 61 0 l 636 0 l 636 177 l 238 177 l 238 398 l 547 398 l 547 575 l 238 575 l 238 796 l 636 796 l 636 972 l 61 972 m 349 1333 l 174 1134 l 258 1061 l 349 1165 l 439 1061 l 523 1134 l 349 1333 z "},"ë":{"ha":697,"x_min":61,"x_max":636,"o":"m 61 972 l 61 0 l 636 0 l 636 177 l 238 177 l 238 398 l 547 398 l 547 575 l 238 575 l 238 796 l 636 796 l 636 972 l 61 972 m 393 1126 l 526 1126 l 526 1258 l 393 1258 l 393 1126 m 172 1126 l 304 1126 l 304 1258 l 172 1258 l 172 1126 z "},"ì":{"ha":334,"x_min":61,"x_max":273,"o":"m 96 0 l 273 0 l 273 972 l 96 972 l 96 0 m 61 1305 l 135 1091 l 245 1091 l 209 1305 l 61 1305 z "},"í":{"ha":333,"x_min":61,"x_max":272,"o":"m 61 0 l 238 0 l 238 972 l 61 972 l 61 0 m 125 1303 l 88 1089 l 199 1089 l 272 1303 l 125 1303 z "},"î":{"ha":471,"x_min":61,"x_max":410,"o":"m 147 0 l 324 0 l 324 972 l 147 972 l 147 0 m 235 1333 l 61 1134 l 144 1061 l 235 1165 l 327 1061 l 410 1134 l 235 1333 z "},"ï":{"ha":475,"x_min":61,"x_max":414,"o":"m 149 0 l 326 0 l 326 972 l 149 972 l 149 0 m 282 1126 l 414 1126 l 414 1258 l 282 1258 l 282 1126 m 61 1126 l 193 1126 l 193 1258 l 61 1258 l 61 1126 z "},"ð":{"ha":745,"x_min":61,"x_max":684,"o":"m 508 288 q 475 210 508 241 q 397 177 443 177 l 287 177 l 287 398 l 428 398 l 428 575 l 287 575 l 287 796 l 397 796 q 475 764 443 796 q 508 686 508 731 l 508 288 m 110 972 l 110 575 l 61 575 l 61 398 l 110 398 l 110 0 l 397 0 q 600 84 516 0 q 684 288 684 169 l 684 686 q 600 888 684 804 q 397 972 516 972 l 110 972 z "},"ñ":{"ha":697,"x_min":61,"x_max":636,"o":"m 459 972 l 459 450 l 245 972 l 61 972 l 61 0 l 238 0 l 238 523 l 452 0 l 636 0 l 636 972 l 459 972 m 240 1142 q 268 1164 252 1156 q 317 1156 292 1175 q 412 1121 362 1121 q 434 1123 423 1121 q 544 1194 502 1134 l 453 1257 l 453 1257 q 416 1232 437 1235 q 383 1244 401 1230 q 248 1274 319 1292 q 153 1211 191 1259 l 240 1143 l 240 1142 z "},"ò":{"ha":697,"x_min":61,"x_max":636,"o":"m 459 288 q 427 210 459 241 q 349 177 394 177 q 271 210 302 177 q 238 288 238 241 l 238 686 q 271 764 238 731 q 349 796 302 796 q 427 764 394 796 q 459 686 459 731 l 459 288 m 349 972 q 145 888 230 972 q 61 686 61 804 l 61 288 q 145 84 61 169 q 349 0 230 0 q 551 84 467 0 q 636 288 636 169 l 636 686 q 551 888 636 804 q 349 972 467 972 m 226 1305 l 299 1091 l 410 1091 l 373 1305 l 226 1305 z "},"ó":{"ha":697,"x_min":61,"x_max":636,"o":"m 459 288 q 427 210 459 241 q 349 177 394 177 q 271 210 302 177 q 238 288 238 241 l 238 686 q 271 764 238 731 q 349 796 302 796 q 427 764 394 796 q 459 686 459 731 l 459 288 m 349 972 q 145 888 230 972 q 61 686 61 804 l 61 288 q 145 84 61 169 q 349 0 230 0 q 551 84 467 0 q 636 288 636 169 l 636 686 q 551 888 636 804 q 349 972 467 972 m 324 1303 l 287 1089 l 397 1089 l 471 1303 l 324 1303 z "},"ô":{"ha":697,"x_min":61,"x_max":636,"o":"m 459 288 q 427 210 459 241 q 349 177 394 177 q 271 210 302 177 q 238 288 238 241 l 238 686 q 271 764 238 731 q 349 796 302 796 q 427 764 394 796 q 459 686 459 731 l 459 288 m 349 972 q 145 888 230 972 q 61 686 61 804 l 61 288 q 145 84 61 169 q 349 0 230 0 q 551 84 467 0 q 636 288 636 169 l 636 686 q 551 888 636 804 q 349 972 467 972 m 349 1333 l 174 1134 l 258 1061 l 349 1165 l 439 1061 l 523 1134 l 349 1333 z "},"õ":{"ha":697,"x_min":61,"x_max":636,"o":"m 459 288 q 427 210 459 241 q 349 177 394 177 q 271 210 302 177 q 238 288 238 241 l 238 686 q 271 764 238 731 q 349 796 302 796 q 427 764 394 796 q 459 686 459 731 l 459 288 m 349 972 q 145 888 230 972 q 61 686 61 804 l 61 288 q 145 84 61 169 q 349 0 230 0 q 551 84 467 0 q 636 288 636 169 l 636 686 q 551 888 636 804 q 349 972 467 972 m 240 1142 q 268 1164 252 1156 q 317 1156 292 1175 q 412 1121 362 1121 q 434 1123 423 1121 q 544 1194 502 1134 l 453 1257 l 453 1257 q 416 1232 437 1235 q 383 1244 401 1230 q 248 1274 319 1292 q 153 1211 191 1259 l 240 1143 l 240 1142 z "},"ö":{"ha":697,"x_min":61,"x_max":636,"o":"m 459 288 q 427 210 459 241 q 349 177 394 177 q 271 210 302 177 q 238 288 238 241 l 238 686 q 271 764 238 731 q 349 796 302 796 q 427 764 394 796 q 459 686 459 731 l 459 288 m 349 972 q 145 888 230 972 q 61 686 61 804 l 61 288 q 145 84 61 169 q 349 0 230 0 q 551 84 467 0 q 636 288 636 169 l 636 686 q 551 888 636 804 q 349 972 467 972 m 393 1126 l 526 1126 l 526 1258 l 393 1258 l 393 1126 m 172 1126 l 304 1126 l 304 1258 l 172 1258 l 172 1126 z "},"÷":{"ha":652,"x_min":61,"x_max":591,"o":"m 238 619 l 415 619 l 415 796 l 238 796 l 238 619 m 238 177 l 415 177 l 415 354 l 238 354 l 238 177 m 61 398 l 591 398 l 591 575 l 61 575 l 61 398 z "},"ø":{"ha":697,"x_min":61,"x_max":636,"o":"m 459 288 q 427 210 459 241 q 349 177 394 177 q 267 212 300 177 l 459 616 l 459 288 m 238 686 q 271 764 238 731 q 349 796 302 796 q 429 760 397 796 l 238 356 l 238 686 m 628 972 l 530 972 l 507 925 q 349 972 435 972 q 145 888 230 972 q 61 686 61 804 l 61 288 q 122 111 61 189 l 69 0 l 167 0 l 190 48 q 349 0 262 0 q 551 84 467 0 q 636 288 636 169 l 636 686 q 575 862 636 784 l 628 972 z "},"ù":{"ha":697,"x_min":61,"x_max":636,"o":"m 459 288 q 427 210 459 241 q 349 177 394 177 q 271 210 302 177 q 238 288 238 241 l 238 972 l 61 972 l 61 288 q 145 84 61 169 q 349 0 230 0 q 551 84 467 0 q 636 288 636 169 l 636 972 l 459 972 l 459 288 m 226 1305 l 299 1091 l 410 1091 l 373 1305 l 226 1305 z "},"ú":{"ha":697,"x_min":61,"x_max":636,"o":"m 459 288 q 427 210 459 241 q 349 177 394 177 q 271 210 302 177 q 238 288 238 241 l 238 972 l 61 972 l 61 288 q 145 84 61 169 q 349 0 230 0 q 551 84 467 0 q 636 288 636 169 l 636 972 l 459 972 l 459 288 m 324 1303 l 287 1089 l 397 1089 l 471 1303 l 324 1303 z "},"û":{"ha":697,"x_min":61,"x_max":636,"o":"m 459 288 q 427 210 459 241 q 349 177 394 177 q 271 210 302 177 q 238 288 238 241 l 238 972 l 61 972 l 61 288 q 145 84 61 169 q 349 0 230 0 q 551 84 467 0 q 636 288 636 169 l 636 972 l 459 972 l 459 288 m 349 1333 l 174 1134 l 258 1061 l 349 1165 l 439 1061 l 523 1134 l 349 1333 z "},"ü":{"ha":697,"x_min":61,"x_max":636,"o":"m 459 288 q 427 210 459 241 q 349 177 394 177 q 271 210 302 177 q 238 288 238 241 l 238 972 l 61 972 l 61 288 q 145 84 61 169 q 349 0 230 0 q 551 84 467 0 q 636 288 636 169 l 636 972 l 459 972 l 459 288 m 393 1126 l 526 1126 l 526 1258 l 393 1258 l 393 1126 m 172 1126 l 304 1126 l 304 1258 l 172 1258 l 172 1126 z "},"ý":{"ha":818,"x_min":61,"x_max":757,"o":"m 566 972 l 409 588 l 252 972 l 61 972 l 321 336 l 321 0 l 497 0 l 497 336 l 757 972 l 566 972 m 385 1303 l 348 1089 l 458 1089 l 532 1303 l 385 1303 z "},"þ":{"ha":719,"x_min":61,"x_max":658,"o":"m 238 376 l 238 597 l 370 597 q 449 564 416 597 q 481 486 481 532 q 449 408 481 441 q 370 376 416 376 l 238 376 m 238 774 l 238 972 l 61 972 l 61 0 l 238 0 l 238 199 l 370 199 q 574 283 490 199 q 658 486 658 368 q 574 690 658 605 q 370 774 490 774 l 238 774 z "},"ÿ":{"ha":818,"x_min":61,"x_max":757,"o":"m 566 972 l 409 588 l 252 972 l 61 972 l 321 336 l 321 0 l 497 0 l 497 336 l 757 972 l 566 972 m 455 1130 l 588 1130 l 588 1261 l 455 1261 l 455 1130 m 234 1130 l 367 1130 l 367 1261 l 234 1261 l 234 1130 z "},"ı":{"ha":299,"x_min":61,"x_max":238,"o":"m 61 0 l 238 0 l 238 972 l 61 972 l 61 0 z "},"ˆ":{"ha":471,"x_min":61,"x_max":410,"o":"m 235 1055 l 61 856 l 144 783 l 235 887 l 326 783 l 410 856 l 235 1055 z "},"˚":{"ha":401,"x_min":61,"x_max":340,"o":"m 200 969 q 236 954 221 969 q 251 918 251 939 q 236 882 251 897 q 200 867 221 867 q 164 882 179 867 q 149 918 149 897 q 164 954 149 939 q 200 969 179 969 m 200 779 q 298 820 258 779 q 340 918 340 861 q 298 1017 340 976 q 200 1058 258 1058 q 102 1017 142 1058 q 61 918 61 976 q 102 820 61 861 q 200 779 142 779 z "},"˜":{"ha":513,"x_min":61,"x_max":452,"o":"m 148 864 q 176 886 160 878 q 224 878 199 897 q 320 843 270 843 q 342 845 331 843 q 452 916 410 856 l 361 979 l 361 979 q 324 954 345 957 q 292 966 310 951 q 156 996 227 1014 q 61 932 98 981 l 149 865 l 148 864 z "},"‘":{"ha":210,"x_min":61,"x_max":149,"o":"m 61 795 l 149 795 l 149 972 l 61 972 l 61 795 z "},"’":{"ha":210,"x_min":61,"x_max":149,"o":"m 61 795 l 149 795 l 149 972 l 61 972 l 61 795 z "},"“":{"ha":326,"x_min":61,"x_max":264,"o":"m 61 795 l 149 795 l 149 972 l 61 972 l 61 795 m 176 795 l 264 795 l 264 972 l 176 972 l 176 795 z "},"”":{"ha":326,"x_min":61,"x_max":264,"o":"m 61 795 l 149 795 l 149 972 l 61 972 l 61 795 m 176 795 l 264 795 l 264 972 l 176 972 l 176 795 z "},"‹":{"ha":531,"x_min":61,"x_max":470,"o":"m 345 768 l 61 484 l 345 201 l 470 326 l 311 484 l 470 643 l 345 768 z "},"›":{"ha":531,"x_min":61,"x_max":470,"o":"m 186 769 l 61 644 l 220 486 l 61 327 l 186 202 l 470 486 l 186 769 z "},"€":{"ha":741,"x_min":61,"x_max":680,"o":"m 393 972 q 189 888 274 972 q 105 686 105 804 l 105 597 l 61 597 l 61 509 l 105 509 l 105 465 l 61 465 l 61 376 l 105 376 l 105 288 q 189 84 105 169 q 393 0 274 0 q 595 84 511 0 q 680 288 680 169 l 680 309 l 503 309 l 503 288 q 471 210 503 241 q 393 177 438 177 q 315 210 347 177 q 282 288 282 241 l 282 376 l 460 376 l 460 465 l 282 465 l 282 509 l 460 509 l 460 597 l 282 597 l 282 686 q 315 764 282 731 q 393 796 347 796 q 471 764 438 796 q 503 686 503 731 l 503 663 l 680 663 l 680 686 q 595 888 680 804 q 393 972 511 972 z "},"−":{"ha":652,"x_min":61,"x_max":591,"o":"m 61 397 l 591 397 l 591 574 l 61 574 l 61 397 z "},"":{"ha":728,"x_min":0,"x_max":0,"o":""},"":{"ha":733,"x_min":0,"x_max":0,"o":""}}}
